<?xml version="1.0" encoding="utf-8"?>
<!-- Generator: Adobe Illustrator 22.0.0, SVG Export Plug-In . SVG Version: 6.00 Build 0)  -->
<svg version="1.1" id="图层_1" xmlns="http://www.w3.org/2000/svg" xmlns:xlink="http://www.w3.org/1999/xlink" x="0px" y="0px"
	 viewBox="0 0 500 500" style="enable-background:new 0 0 500 500;" xml:space="preserve">
<style type="text/css">
	.st0{fill:#BDC5CE;}
	.st1{fill:#0856EA;}
	.st2{fill:#CD6A5D;}
</style>
<path class="st0" d="M62.8,436.5c0,32.3,82.4,58.6,184,58.6c101.6,0,184-26.2,184-58.6c0-32.3-82.4-58.6-184-58.6
	C145.2,377.9,62.8,404.1,62.8,436.5L62.8,436.5z M62.8,436.5"/>
<path class="st1" d="M367.2,414.7L272.4,156c0.4-0.2,0.8-0.4,1.2-0.7c15.5-9,25.1-25.5,25.1-43.5c0-17.9-9.6-34.5-25.1-43.5
	c-15.5-9-34.7-9-50.2,0c-15.5,9-25.1,25.5-25.1,43.5c0,17.3,8.9,33.4,23.6,42.5l-95.5,260.3c-3.3,8.4,1.7,18.4,10,21.7
	c8.4,3.3,18.4-1.7,21.7-10l15.1-38.5h147.2l15.1,38.5c3.3,8.4,13.4,13.4,21.7,10C365.6,433.1,370.6,424.8,367.2,414.7z M248.5,185.5
	l30.1,83.7h-61.9L248.5,185.5z M186.6,354.5l18.4-50.2h85.3l18.4,50.2H186.6z"/>
<path class="st2" d="M87.9,217.3"/>
</svg>
