<?xml version="1.0" encoding="utf-8"?>
<!-- Generator: Adobe Illustrator 22.0.0, SVG Export Plug-In . SVG Version: 6.00 Build 0)  -->
<svg version="1.1" id="图层_1" xmlns="http://www.w3.org/2000/svg" xmlns:xlink="http://www.w3.org/1999/xlink" x="0px" y="0px"
	 viewBox="0 0 500 500" style="enable-background:new 0 0 500 500;" xml:space="preserve">
<style type="text/css">
	.st0{fill:#0856EA;}
</style>
<g>
	<g>
		<path class="st0" d="M60,231.7c0,0-33.6-7.2-25.7-36.5c7.9-29.1,39.8-18,39.8-18s56,18.1,63.9,12.1c8.1-6.2,37.3-53.3,78.8-62.8
			c41.4-9.7,90-2,118.2,11.8c28,13.7,66.9,86.5,81.5,111.9c17.6,30.6-24.7,61-48.5,28.2c-26.7-36.8-42.7-65-46.7-71.9
			c-4-6.9-11.7-15.2-19-11.3c-5.3,2.8,8.1,48,8.1,48s24.2,67.8,24.6,76.4c10.5,22.6,14.6,46,21.8,50c7.1,4,68.6-29.9,68.6-29.9
			s33.3-8.7,40.5,23.2c7,32.2-27.3,40.7-27.3,40.7s-86.9,52.8-116.6,45.6c-23.1-5.6-46.5-87.5-57.4-90.4
			c-10.8-2.9-58.2,6.8-60.3,12.6c-2.3,5.8-27.7,101.8-27.7,101.8s-1.6,29.9-38,20.1c-36.3-9.8-23.5-36.7-23.5-36.7
			s30.2-125.1,32.9-136.7c2.3-11.4,67-31,79.5-30.6c-8.1-24.1-21.5-59.5-25.7-71.6c-6.5,1.4-30.8,39.9-50.4,34.6
			C131.5,247,60,231.7,60,231.7L60,231.7z M191,111.8c-29.2-8-46.5-37.7-38.6-66.7c7.8-28.9,37.8-46.1,67.1-38.2
			c29.3,8,46.4,37.9,38.6,66.8C250.1,102.7,220.3,119.8,191,111.8L191,111.8z M191,111.8"/>
	</g>
</g>
</svg>
